# xmcd
#
# Track frame offsets:
# 150
# 19204
# 33841
# 48842
# 61949
# 78140
# 92276
# 110844
# 122877
# 139371
#
# Disc length: 1977 seconds
#
# Revision: 0
# Processed by: cddbd v1.5.1PL0 Copyright (c) Steve Scherf et al.
# Submitted via: Audion 3.0.2 (http://www.panic.com/audion/)
#
DISCID=7b07b70a
DTITLE=Celso Pina - El Canto De Un Rebelde Para Un Rebelde
DYEAR=1900
DGENRE=
TTITLE0=El Porro Magangueleno
TTITLE1=Hasta Siempre Comandante
TTITLE2=039
TTITLE3=La Ramita De Ciriguaya
TTITLE4=Eres La Luz
TTITLE5=Lo Eterno
TTITLE6=Tu Revolucion
TTITLE7=Cumbia Campanera
TTITLE8=El Abandonado
TTITLE9=Tardecita
EXTD=
EXTT0=
EXTT1=
EXTT2=
EXTT3=
EXTT4=
EXTT5=
EXTT6=
EXTT7=
EXTT8=
EXTT9=
PLAYORDER=
